# xmcd
#
# Track frame offsets:
# 150
# 15542
# 30799
# 47066
# 64952
# 78084
# 91052
# 109457
# 127263
# 139934
# 157485
# 175560
# 190266
# 205398
# 221355
# 237710
# 253742
# 273971
#
# Disc length: 3896 seconds
#
#
# Revision: 0
# Processed by: cddbd v1.5.2PL0 Copyright (c) Steve Scherf et al.
# Submitted via: FreeRIP 2.92 
#
DISCID=050f3612
DTITLE=Various Artist - Country Sokkie - Vol 4
DYEAR=2006
DGENRE=Country
TTITLE0=Party for two
TTITLE1=It's a heartache
TTITLE2=Something more
TTITLE3=You'll think of me
TTITLE4=UP!
TTITLE5=It must be love
TTITLE6=Dancing the night away
TTITLE7=Amazed
TTITLE8=Down in Mississippi
TTITLE9=Rhinestone cowboy
TTITLE10=I hope you dance
TTITLE11=Here for the party
TTITLE12=I need you
TTITLE13=Jeans on
TTITLE14=Probably wouldn't be this way
TTITLE15=What about now
TTITLE16=My best friend
TTITLE17=Peace
EXTD=
EXTT0=
EXTT1=
EXTT2=
EXTT3=
EXTT4=
EXTT5=
EXTT6=
EXTT7=
EXTT8=
EXTT9=
EXTT10=
EXTT11=
EXTT12=
EXTT13=
EXTT14=
EXTT15=
EXTT16=
EXTT17=
PLAYORDER=
